# xmcd
#
# Track frame offsets:
#	150
#	13829
#	28001
#	42943
#	60528
#	72101
#	86307
#	103211
#	116744
#	128212
#	141591
#	155632
#	172763
#
# Disc length: 2491 seconds
#
# Revision: 0
# Processed by: cddbd v1.5.2PL0 Copyright (c) Steve Scherf et al.
# Submitted via: EZCDAudioConverter 2.1.5.1
#
DISCID=b109b90d
DTITLE=Elisa's - Be Mig! Se Mig! Ge Mig!
DYEAR=2013
DGENRE=Swedish Dansband 10s
TTITLE0=Be Mig! Se Mig! Ge Mig!
TTITLE1=Take Me Home Country Road
TTITLE2=Sanna Mina Ord
TTITLE3=När Jag Ser Mig Tillbaks
TTITLE4=Det Ska Gudarna Veta
TTITLE5=Fångad Av En Blick Från Dig
TTITLE6=Varje Litet Andetag
TTITLE7=Morfars Grammofon
TTITLE8=Den Känslan
TTITLE9=Om Du Vill
TTITLE10=Den Som Gick I Dina Kläder
TTITLE11=Diamonds Are A Girl's Best Friend
TTITLE12=Lever Min Dröm
EXTD=
EXTT0=
EXTT1=
EXTT2=
EXTT3=
EXTT4=
EXTT5=
EXTT6=
EXTT7=
EXTT8=
EXTT9=
EXTT10=
EXTT11=
EXTT12=
PLAYORDER=
